<svg xmlns="http://www.w3.org/2000/svg" xml:space="preserve" width="1440" height="1440"><defs><clipPath id="a" clipPathUnits="userSpaceOnUse"><path d="M0 1080h1080V0H0Z"/></clipPath></defs><g clip-path="url(#a)" transform="matrix(1.33333 0 0 -1.33333 0 1440)"><path d="M0 0c0-.611.918-.611.918 0C.918.613 0 .613 0 0" style="fill:#010101;fill-opacity:1;fill-rule:nonzero;stroke:none" transform="translate(261.72 289.142)"/><path d="M0 0c-.92 1.83-3.06 0-2.45-.92C-1.53-1.53.91-1.53 0 0m3.36 6.73c-.31 0-.31-.31 0-.31s.31.31 0 .31m0 0c-.31 0-.31-.31 0-.31s.31.31 0 .31M0 0c-.92 1.83-3.06 0-2.45-.92C-1.53-1.53.91-1.53 0 0m0 0c-.92 1.83-3.06 0-2.45-.92C-1.53-1.53.91-1.53 0 0m3.36 6.73c-.31 0-.31-.31 0-.31s.31.31 0 .31m0 0c-.31 0-.31-.31 0-.31s.31.31 0 .31M0 0c-.92 1.83-3.06 0-2.45-.92C-1.53-1.53.91-1.53 0 0m0 0c-.92 1.83-3.06 0-2.45-.92C-1.53-1.53.91-1.53 0 0m3.36 6.73c-.31 0-.31-.31 0-.31s.31.31 0 .31m0 0c-.31 0-.31-.31 0-.31s.31.31 0 .31M0 0c-.92 1.83-3.06 0-2.45-.92C-1.53-1.53.91-1.53 0 0m0 0c-.92 1.83-3.06 0-2.45-.92C-1.53-1.53.91-1.53 0 0m3.36 6.73c-.31 0-.31-.31 0-.31s.31.31 0 .31m0 0c-.31 0-.31-.31 0-.31s.31.31 0 .31M0 0c-.92 1.83-3.06 0-2.45-.92C-1.53-1.53.91-1.53 0 0m0 0c-.92 1.83-3.06 0-2.45-.92C-1.53-1.53.91-1.53 0 0m3.36 6.73c-.31 0-.31-.31 0-.31s.31.31 0 .31m0 0c-.31 0-.31-.31 0-.31s.31.31 0 .31M0 0c-.92 1.83-3.06 0-2.45-.92C-1.53-1.53.91-1.53 0 0m0 0c-.92 1.83-3.06 0-2.45-.92C-1.53-1.53.91-1.53 0 0m3.36 6.42c.31 0 .31.31 0 .31s-.31-.31 0-.31m148.12 184.12c-.6.29-1.2.58-1.79.88-11.89-1-23.34-3.54-34.46-7.41-29.82-10.36-58.8-22.58-89.74-30.44-22.82-5.8-45.56-11.81-68.59-16.92-.36-.24-.7-.49-1.01-.73-2.28.85-4.38-.14-6.5-.94-.25-.16-.47-.33-.69-.5-3.58 2.47-5.82 4.74 1.75 6.28 1.71.35 3.13 1.82 4.68 2.78 16.5 6.88 33.8 11.89 51.48 15.64 20.22 4.29 40.97 6.94 60.12 14.42 8.28 3.23 18.47 4.75 21.98 14.02-.09.14-.19.25-.31.34.14.08.26.16.39.23.88.46 1.76.92 2.72 1.28.88.18 1.59-.08 2.25-.43-.57.07-1.14.15-1.71.23-.44-.17-.9-.3-1.38-.38-.2 0-.39-.13-.59-.4-.2-.28-.04-.58.49-.9 1.49-.18 3.05-.52 3.56 1.25.76-.44 1.49-.93 2.41-.96 10.65 2.82 20.65 7.16 31.77 9.12 14.43 2.55 29.27 4 42.96 9.3.67.44 1.15 1 1.5 1.66.95-.18 1.79-.11 2.49.33.1 0 .2-.02.31-.01-6.32-7.69-14.51-13.44-24.09-17.74M-65.84 154.1c-4.26 5-8.54 10.04-13.51 14.52-8.24 7.42-8.42 10.26-.13 17.05.71-.55 1.48-1.03 2.39-1.34 4.52-1.22 9.16-1.92 13.9-2.15 18.58-.88 36.86-3.55 55.05-6.89 8.99-1.65 17.97-3.49 27.19-4.06-20.86-6.02-41.28-13.12-62.04-19.37-1.38-.42-2.46-1.4-3.42-2.39-.03-.03-.05-.06-.08-.09-1.71.79-3.64.65-5.3-.01-6.68-2.65-10.35.38-14.05 4.73m-24.16.84c4.75-4.52 7.44-9.91 9.57-15.55-2.81 2.66-5.42 5.46-7.47 8.68-4.78 7.52-11.26 13.04-21.26 15.22-6.81 1.49-14.16 10.59-14.47 16.41 7.18-.85 14.53-1.13 20.56-5.57 1.54-1.13 3.69-1.55 5.82-1.51.58.16 1.1.35 1.6.56 2.74-1.38 4.66-3.78 7.11-5.42 6.1-4.1 12.78-8.61 14.59-15.9-4.25 1.87-6.93 5.52-10.97 7.62-1.86.97-3.99 1.49-5.74.16-2.16-1.63-.61-3.48.66-4.7m-.11-23.68c-.04.26-.06.51-.05.72.52.04 1.06-.02 1.6-.13-.52-.18-1.03-.38-1.55-.59m-78.11-4.46c-4.84 1.18-11.06 1.48-12.89 6.54 1.35-.8 2.84-1.41 4.49-1.77 14.08-3 28.3-5.68 42.85-3.92 11.95 1.46 23.7 1.59 35.42-.61-23.21-6.91-46.57-5.91-69.87-.24m-5.14-27.09c-.24.01-.49.01-.49.01l.24.51.52-.43c-.09-.03-.18-.05-.27-.09m-16.21 61.23c-.41.16-.82.26-1.23.4.66.66 1.11 1.44 1.67 2.16 2.86 3.65 5.84 8.05 11.83 4.83 6.4-3.44 3.71-7.67.47-11.93-2.66-3.49-6.16-6.71-7.05-11-2.36 5.04-1.88 10.94-5.69 15.54m-4.17 63.88c6.49-1.34 10.9-5.29 14.72-9.85 8.03-9.6 15.8-19.38 24.47-28.55 1.94-2.05 3.1-5.22 6.86-5.31 1-5.18 6.94-7.98 8.48-13.15-4.2-.15-7.25 1.42-9.36 3.97-5.04 6.08-10.94 11.72-14.24 18.77-2.21 4.73-5.34 7.43-11.46 8.38-11.03 1.72-16.84 7.85-18.19 17.59-.38 2.73.07 5.56-1.28 8.15m38.11-15.21c8.48 2.11 17.23 2.03 25.86 2.89 2.9.85 5.93 1.18 8.89 1.81 6.4 2.26 13.97-1.25 20.01 2.82.19-.22.39-.43.62-.65.74-.38 1.54-.67 2.38-.85 2.63-.44 5.31-.35 7.97-.38 1.78.01 3.56.02 5.33.1.38.02.74.04 1.11.07 1.42-.91 2.84-.82 4.25.26.09-.17.22-.34.4-.5 1.5-.99 3.25-1.26 5.06-1.34 2.16-.07 4.32-.03 6.47.02 1.29.03 2.56.12 3.82.36.4.09.79.21 1.16.36-.54-.57-.96-1.19-1.17-1.94-1.03.07-2.07.13-3.1.2-2.34.01-4.69.01-7.03.01-4.71.79-9.43.69-14.14.06-.14-.19-.22-.37-.29-.56-1.14.17-2.28.33-3.42.5l-12.27-.54 1.68-1.38 14.06.3c.13-.27.31-.53.61-.78 5.24-.15 10.5-.73 15.72.34 2.77.15 5.54.29 8.32.44.12-.28.27-.55.49-.81.67-.42 1.4-.73 2.19-.91 2.3-.25 4.61-.56 6.69.29.52-.28 1-.59 1.4-.94 17.5-4.57 35.66-5.16 53.63-6.14 22.2-1.21 43.62-4.09 62.88-14.69.14-.05.25-.12.38-.18-11.41-4.07-22.25 1.24-33.34 2.81-38.54 5.48-76.84 12.6-115.96 14.32-17.12.75-34.32 1.46-51.39-.7-3.21-.4-7.42.01-8.59-4.07-.04-.01-.07-.02-.1-.03.03.08.07.17.11.25-6.89 2.1-15.93 1.24-18.18 9.7 2.27-1.36 4.98-1.15 7.49-.52M1.83 21.41c3.06-4.28-6.12-7.34-2.45-8.26 11.63-3.05 9.49-4.28 10.71-15.6.31-2.14 12.85-8.26.61-6.42-.3 0-1.83.3-1.83.61v7.34C8.87-.31 7.34.3 6.73 0v-4.9S0-6.73-1.53-7.35c-1.23-.3-3.06 7.65-5.82 9.8V15.6c-3.67 2.45-.61 4.28-6.42 6.73 5.81 7.96 9.79-3.36 15.6-.92M20.8-27.23c.31-3.98-.61-7.04-2.45-2.45-.92 2.45-.61 4.9 2.45 2.45m-9.18 8.26c-.92-.31-3.06.61-3.36.92-2.76 1.22-1.84 4.28 0 5.81 1.83-1.22 4.28-4.59 3.36-6.73m-4.89-3.06c-.62-.31-1.53 0-1.53.61v2.45c1.83 1.22 1.53-2.75 1.53-3.06M-6.43-4.9h-.92v.92h.92zm-3.98 10.71c-.3 0-.91.61-.91.92v1.53c1.22.92 2.44-1.53.91-2.45m-4.28 4.9c-.3 0-.92.61-.92.91l1.84 3.06c.61 1.53 5.81-5.5-.92-3.97m-12.24 10.7h-1.83v.92s.61.61.91.61c.62-.3 1.23-.91.92-1.53m-.92-8.26c-.61.31-2.14 1.84-2.44 2.45-1.23 2.45 2.14 2.76 3.36 2.45.31-1.53-.3-3.37-.92-4.9m-184.23 177.92c-4.35-3.57-2.39-8.7-4.1-12.94-.08-.71-.11-1.42-.04-2.16.04-.44.31-.88.37-1.23-.12-.24-.21-.48-.26-.73-.09.13-.1.65-.24.5-3.5 3-7.69 3.25-12.11 2.47 3.35 6.35-2.21 11.6-3.1 17.43-1.62 10.68-1.7 11.03 9.92 13.31 1.14.23 2.19.57 3.01 1.25.51-.95 1.17-1.79 1.99-2.56 8.55-7.6 12.43-17.18 15.81-27.57-4.68 4-2.71 11.64-11.25 12.23m6.09-83.15c-.29 1.22-.87 2.36-1.48 3.48-.76 1.39-.86 2.88-.94 4.37-.04.58-.06 1.17-.06 1.75 1.24-3.6 2.95-7.08 4.99-10.46-.81.42-1.61.85-2.51.86m-23.46 41.4c-1.46 4.46-2.09 8.71-6.08 11.55-.73.38-1.38.29-2 .09.01.02.01.05.02.07.02.49-.12.95-.41 1.37-.62 1.21-1.39 2.22-3.01 1.94.2 1.03-.45 1.42-1.8 1.26.02-1.89.03-3.79.04-5.69-.22-.1-.43-.2-.63-.33-.62-.64-1.01-1.39-1.37-2.16-.44-.73-1.08-1.27-1.88-1.66-.6-.18-1.24-.32-1.86-.46-7.73 2.13-9.69 1.14-10.14-5.96-.05-.78-.19-1.51-.37-2.23-.12 5.74-1.33 11.29-4.52 16.52-.39.23-.75.35-1.1.42.66 1.07.17 1.47-.89 1.55.22.24.45.5.69.79 1.51 5.04-.39 9.58-2.59 14.07.9-.54 1.7-1.25 2.64-1.74 2.43-1.24 4.45-1.38 5.25 1.58-2.49 11.02-2.52 11.27 6.96 16.14 7.45-6.76 13.13-14.94 21.54-20.93-.3-.36-.55-.75-.72-1.2-1.08-4.64 1.85-8.61 2.82-12.9.9-3.95 2.07-7.83-.59-12.09m-56.6-58.76v.12c.08-.03.15-.06.23-.1-.08-.01-.15 0-.23-.02m-14.6 51.43c-.14-.65-.46-1.18-.93-1.64l-.44-.03c-.23-.23-.46-.45-.68-.68-1.02-.4-2.11-.61-3.19-.83-.2-.03-.38-.08-.54-.15-.58-.15-1.15-.3-1.68-.55-.86-.49-1.39-1.17-1.62-2.01-6.88 2.53-12.43 1.09-16.61-4.37-.85.26-1.72.5-2.6.67-3.62.3-7.16-.42-10.41-1.57-23.52-8.32-48.19-9.33-71.03-10.31 16.67 1.6 34.27 6.44 52.11 10.05.86.17 1.73.42 2.49.82 1.97 1.03 4.7 1.8 3.76 4.49-.79 2.3-3.18 2.81-5.7 2.93-3.2.16-6.25-1.09-8.63-.79 7.36 1.1 15.72 1.11 23.75 3.03 3.78.9 8.19 1.28 9.35 5.57 5.12.64 10.25 1.29 15.38 1.93 1.27-.37 1.69.39 2.08 1.2.77 1.17 4.73-2.06 3.46 1.94-.49 1.02-1.33 1.23-2.25 1.23-.42 0-.86-.05-1.29-.07l-11.06-.15c-1.17.04-2.34.08-3.5.13-.59-.02-1.18-.03-1.77-.05-.57-.01-1.14-.03-1.71-.05-3.52.69-7.04 1.37-10.56 2.05-.16.11-.32.22-.47.33.32.08.65.12.97.21 12.72.62 25.47.28 38.2.23 10.69-.04 11.9-2.33 6.18-10.72-.61-.88-1.01-1.8-1.06-2.84m-244.48-13.46c-8.75-1.69-17.5-2.16-26.21-.79 2.42.41 4.8 1.05 7.2 1.69 14.77 3.99 29.69 7.24 45.3 7.38 4.45.04 8.93.47 12.29 3.61.31.49.44 1.01.49 1.54h.05l.74-.11c.63-1.04 1.25-1.48 1.86-1.48.72 0 1.43.59 2.13 1.51l8.62.39c1.6-.37 3.09-.44 3.9 1.19 9.03-.06 17.67 2.2 26.46 3.51 1.61-.39 3.06-.42 3.82 1.22 1.71.12 3.42.25 5.13.37.59.04 1.18.07 1.77.1.7.34 1.38.71 2.05 1.1 1.68.31 3.39.52 5.08.8 2.71.25 5.41.46 8.13 0 10.56 1.26 21.22 3.56 31.76 2.63 15.7-1.39 31.45.09 47.08-1.64 1.37.26 2.43.85 3.23 1.72.31-.01.62-.02.93-.02l-.33-.52c-1.43-1.08-3.05-1.38-4.74-1.41-.17.05-.35.07-.53.12-3.62.62-7.24.55-10.86.02-9.38-1.7-18.94-.22-28.34-1.2-49.4-5.17-98.41-12.37-147.01-21.73m41.04 15.21c1.71.35 3.38.84 5.14.91.96.07 1.92.12 2.88.17l-.21-.9-5.25-.12-4.83-.54c-.05.07-.09.15-.14.2.8.05 1.6.15 2.41.28m12.78 1.64c1.34.3 2.66.63 4.03.78-.02-.22-.07-.43-.06-.64-1.11-.2-2.22-.39-3.33-.59-1.18-.03-2.37-.07-3.55-.11-.23.03-.45.06-.68.08 1.2.09 2.41.23 3.59.48m12.51 1.57c1.62.37 3.23.79 4.92.85.36.03.72.05 1.08.07-.12-.3-.24-.59-.37-.88-1.14-.01-2.28-.01-3.42-.01-1.13-.17-2.25-.35-3.38-.52l-2.21.03c1.13.1 2.26.22 3.38.46m11.79 1.48c-.75-.14-1.5-.28-2.24-.42-.31 0-.61.01-.92.02 1.06.08 2.11.21 3.16.4m8.25 1.82c1.2.3 2.41.57 3.65.65-.03-.31-.06-.62-.16-.93-1.17.03-2.33.07-3.5.1 0 .06 0 .12.01.18m105.65 6.33c-.02-.05-.04-.1-.05-.14-.01.06 0 .12-.01.18.02-.01.04-.03.06-.04m37.02-107.18v.14h.04v.03l.14-.02c-.07-.04-.11-.1-.18-.15m-1.19 231.96c1.13.94 2.1.61 2.89-.26-.83.17-1.78.25-2.89.26m-27.73 48.68s.13.03.19.04c-.04-.05-.09-.09-.13-.14-.02.03-.03.07-.06.1m278.88-20.47c.54.89 1.09 1.78 1.47 2.73 3.03 5.57 4.69 11.57 7.01 17.37.34.98.72 1.93 1.12 2.89.31.6.62 1.2.89 1.81.47.91.92 1.83 1.17 2.82.24 1.35.14 2.61-1.06 3.61.41-.06.84-.05 1.33.09 3.78 2.95 4.21 7.32 6.1 11.07 4.66 9.23 6.33 19.54 12 28.41-9.7-24.36-19.84-48.58-29.82-72.86-.1-.32-.21-.64-.31-.96-.09 0-.18 0-.28.01-.03-.02-.05-.04-.08-.06-.01.72-.03 1.45-.04 2.17.17.3.35.6.5.9m50.96 90.33c.09.59.08 1.17.01 1.76.15 0 .3-.03.46.01.47.38.93.77 1.37 1.18l.54.48c.01-.1.03-.21.04-.31-.4-.42-.83-.81-1.1-1.31-.47-.78-.68-1.62-.69-2.5.02-.54.1-1.07.22-1.6-.04-.08-.08-.15-.12-.23-.12-.22-.16-.45-.16-.67 0-.09.01-.17.02-.26-.06-.01-.11-.01-.16-.03-.56-.41-1-.89-1.29-1.47-.48-1.13-.88-2.27-1.36-3.38a9.46 9.46 0 0 1-.56-1.91c.14 3.51 1.28 6.9 2.78 10.24m2.37 5.48c.12.17.17.27.19.33 0-.03 0-.08.01-.13-.07-.1-.14-.2-.22-.31-.02-.03-.02-.07-.03-.1-.19-.12-.25-.25.05.21m236.75-185.06c-5.74-.41-11.82 1.58-17.19-1.45-8.27-4.67-17.8-5.04-27.03-6.51-1.15.24-1.71-.34-2.07-1.18l.19-.22c-1.79-.44-4.38 1.25-5.32-1.48h-.08v-.07c-11.49.69-22.55-1.84-33.62-3.82-16.36-2.93-32.41-8.2-49.33-6.98-13.49.98-26.81 3.76-40.26 5.38-14.05 1.7-27.73 5.14-42.07 5.65-10.37.38-20.64 2.68-31 3.86-11.79 1.34-23.63 2.38-35.44 3.56-.61-.02-1.23-.03-1.84-.04-5.24.78-10.31 2.59-15.78 1.9-4.38 4.33 1.98 6.69 2.29 9.87 1.22 12.47 9.3 23.03 11.74 35.09 2.47 12.2 10.38 22.7 13.74 34.8 3.88 13.98 10.76 27.32 16.34 40.93 5.65 9.49 10.25 19.31 12.63 29.86.62 3.61 1.24 7.22 1.85 10.82 2.68 1.36 3.12 3.77 3.72 6.1 1.6.75 1.87 1.93 1.43 3.35.12 1.48.23 2.96.34 4.45.89.36 1.72.75 1.29 1.82.2.96.4 1.92.59 2.87.4.64.79 1.28 1.19 1.91.16 1.99.33 3.98.49 5.96 2.3 1.23 1.74 3.1 1.43 4.91-.43.82 1.25 4.09-1.44 2.06-3.23-2.44-4.93-6.44-7.29-9.77-8.47-.88-9.53-7.59-12.78-12.57-1.07-.24-2.19-.38-3.21-.74-8.12-2.9-9.48-11.62-16.92-15.26-1.77-.87-1.58-3.92-.51-4.97 2.56-2.51.34-4.28-.39-6.27-2.43-6.65-4.98-13.26-7.49-19.89-.44-.77-.4-1.53.12-2.26.11-.11.23-.2.34-.3l-.24-1.97c-.77-.27-1.54-.55-1.54-1.3 0-.14.03-.3.09-.48l-7.5-18.57c-.33-.69-.98-1.21-1.36-1.87l-.54.17c1.28-2.43-2.1-3.87-1.68-6.12-.93-.35-1.7-.79-1.31-1.85-.2-.44-.36-.89-.47-1.36-.99-.32-1.68-.8-1.25-1.86-.17-.94-.34-1.89-.5-2.83-1.74-.64-1.73-1.96-1.66-3.3l-.22.11c-.44-.6-.87-1.2-1.31-1.81-.13-.24-.19-.48-.19-.72 0-.26.08-.52.23-.78-.18-.44-.35-.88-.51-1.32-.93-.38-1.6-.89-1.2-1.91l-.51-2.79c-1.74-.69-1.83-1.95-1.48-3.35-1.47-5.31-5.72-9.85-5.64-15.59-1.89-.81-2.77-2.13-3.7-3.86-5.04-9.39-8.04-19.38-11.82-29.14-1.91-4.13-3.74-8.29-5.77-12.38-2.04-4.09-4.78-6.32-10.8-6.67-11.88-.7-24.03-.49-35.51-4.15-4.19-.53-8.62.05-12.46-2.08-5.29.64-7.33 4.8-10.64 7.59-10.16 8.6-12.81 12.49-26.75 8.11-.69-.96-1.38-1.92-2.06-2.87-6.36-3.33-9.46-8.8-12.28-14.45-8.97 1.05-17.43.79-24.83-4.99-3.39-2.64-3.96-7.42-8.98-8.64-3.76 2.33-8.09 2.98-12.55 3.23-3.74-.05-6.14-3.39-9.91-3.38-.03.12-.05.23-.09.34-.25.61-.56 1.19-.91 1.75-.03.3-.07.59-.1.89.29.99-.3 1.47-1.3 1.71-1.13 3.77-2.05 7.61-3.36 11.33-1.31 3.71-3.03 7.3-5.75 10.56h-.01c0 .02 0 .03.01.05v.02c-.08 1.53-.15 3.06-.22 4.59.31 1.07-.46 1.5-1.41 1.82-.12.59-.07 1.27-.25 1.83s-.6.99-1.68 1.08v.02c-.01 0-.02 0-.02.01-.3 1.65 1.53 3.88-1.69 4.73-.35 1.64 1.32 3.89-1.82 4.69-.29 1.1.83 2.81-1.67 2.93-2.01.47-1.63 2.06-1.98 3.3-.51.05-1.01.12-1.5.23-.2.43-.21.86-.03 1.3 3.43 3.7-1.67 6.25-1.66 9.48-1.81 9.74-5.15 18.93-12.51 26.67-1.64 2.34-2.63 4.98-3.98 7.41-4.47 7.99-6.35 17.49-15.94 22.72-4.89-1.16-2.67-4.14-1.62-6.19 6.48-12.64 1.58-22.74-8.65-31.79-.15-.12-.29-.25-.43-.37-.1.61-.19 1.22-.28 1.83.03.53.07 1.05.11 1.57-.04 2.67-.07 5.33-.1 8-.01 3.64-.01 7.29-.01 10.94-.23 3.21 2.09 6.7-1.35 9.55-.14 4.1-.28 8.2-.41 12.3.18.27.27.54.27.83 0 .22-.06.44-.17.67.05 1.08.1 2.17.14 3.26h.15c-.01.06-.03.12-.04.17.74.49 1.48.98 2.21 1.47l-.42.23-.35-.32c.27 1.11-.35 1.51-1.42 1.54.01.03 0 .06 0 .09-.07-.01-.14-.01-.21-.01.24 3.36-2.49 4.89-5.19 6.43a.138.138 0 0 1-.03-.04c-.37.36-.75.72-1.12 1.08-.15-.38-.3-.75-.45-1.12.44-.62.89-1.24 1.34-1.86.15-.49.32-.98.49-1.47l-.28.33-.42-.18c.95-2.1-.67-4.85 2.08-6.51.1-1.5.19-2.99.29-4.48.04-1.56.09-3.12.13-4.68h.01l-.03-4.68c.06-.81.08-1.62.08-2.43 0-7.11-1.86-14.3 1.13-21.29.2-3.08.41-6.15.61-9.23-.08-.21-.12-.39-.12-.55 0-.7.66-1.03 1.45-1.29.04-.49.19-.95.47-1.37.26-4.67 2.69-8.62 5.34-12.51 2.18-6.29 4.36-12.58 6.53-18.86-.48-3.65 1.79-6.6 3.23-9.76.4-.35.88-.58 1.37-.79 3.94-10.08 7.9-20.16 11.8-30.25.6-1.58 1.6-2.59 3.45-2.93 3.14 5 2.27 10.3 1.08 15.46-.8 3.44-2.09 6.75-.21 9.96 5.57-12.09 10.89-24.28 16.12-36.5 1.54-3.61 2.55-7.52 6.63-9.82.07-.05.13-.1.2-.15-2.5-.58-3.81 1.48-5.51 2.71-.78.58-1.5 1.22-2.18 1.88.18 1.03-.08 1.91-1.59 2.33-.55.98.42 2.7-1.81 2.87-1.79-.13-1.61-.71-.43-1.51.05-.08.04-.15.08-.22-.14.09-.25.22-.39.31-3.55 1.6-4.76 7.67-10.87 4.36-1.09-3.86.59-6.77 4.01-9.09 2.92-7.89 8.19-15.02 10.26-23.39-19.13-.39-37.67.34-56.19-1.47-8.96-.88-17.97 1.51-27.1 1.61-10.93.13-21.54-2.23-32.44-1.88-12.55.39-25.05-1.82-37.19-3.66-20.68-3.13-41.56-5.29-62.1-9.11-9.56-1.46-19.42-2.07-28.59-4.59-14-3.85-28.37-7.11-41.16-13.83-6.24-1.56-13.33-1.25-17.96-6.33 6-6.28 14.24-4.14 21.82-4.46l8.8-2.07c6.68-2.8 4.31-7.69 3.65-12.19 8.65-1.17 16.28 3.82 24.83 3.19 17.27.54 34.56 2.42 51.79-.45 6.54-1.62 13.33-2.18 19.96-3.53 10.02-2.04 20.3-3.88 30.4-5.05 15.66-1.82 31.75-.69 47.66-.81 15.99-2.35 31.4-.29 46.43 4.69 12.39 3.53 25.69 4.43 37.39 9.97l7.06-.45c1.08-3.07-3.68-3.93-3.32-6.69 1.16-8.86-4.22-16.61-5.51-25.06-.85-5.61-6.95-10.78-1.74-16.88-.01-.97-.03-1.95-.04-2.92-.62-.06-1.24-.12-1.86-.17-3.39-.67-.96-3.08-1.75-4.53l.11-.02c0-.02.01-.04.01-.06-.04.03-.08.05-.12.08-1.66-.41-1.86-1.31-1.83-2.29.02-.76.17-1.56-.12-2.21-.75-.3-1.38-.67-1.38-1.36 0-.16.04-.34.11-.54-.09-.81-.37-1.67-.37-2.46 0-.9.37-1.72 1.81-2.29.11-.96.64-1.47 1.79-1.31-.01-.06-.03-.12-.04-.17.03-.03.07-.05.1-.08.1-1.19-.58-2.71 1.71-3.01v-.01l.02.01c.09-1.01.19-2.02.28-3.03a1.61 1.61 0 0 1-.07-.46c0-.72.6-1.1 1.4-1.38.08-.48.25-.94.52-1.37-.31-1.29-.79-2.63 1.17-3.29l.57-2.89c-.4-1.05.29-1.53 1.26-1.86v-.01c.14-.8.29-1.61.43-2.42.03-.15.05-.3.08-.45.02-1.01.04-2.03.05-3.05-.3-.98.29-1.5 1.22-1.85.19-.45.35-.91.48-1.38-.18-1.04-.43-2.09-.18-3.03.18-.71.64-1.35 1.61-1.88.19-1.78.37-3.55.56-5.32.35.02.7.03 1.05.05l.48 5.26c1.72.74 1.74 2 1.32 3.39.03 1.03.07 2.07.11 3.1l.35-.14c1.16.7 1.6 1.62 1.48 2.73-.02.19-.05.39-.11.6.01.57.01 1.13.02 1.7 0 .47.01.95.01 1.42 0 1.02 0 2.04.01 3.05l.42 4.63c.02.08.03.15.05.23l.96 4.29c1.25 5.6 2.51 11.19 3.76 16.79 1.32 5.93 2.65 11.87 3.98 17.8 3.2 1.47 1.21 4.15 1.86 6.21.96.32 1.75.75 1.33 1.85l.42 6.02c.66.58 1.32 1.15 1.98 1.72l-.42 3.18c.04 1.56.08 3.12.13 4.67 3.22 1.86 1.82 4.36 1.48 6.71.5.45.99.91 1.44 1.42 3.84 1.73 3.72-2.03 5.44-3.17 2.88-1.9 4.92-5.11 9.44-3.67l15.85.06c.49-.28.97-.57 1.46-.85.16.37.32.74.48 1.12l.09-.07c.52.58 1.17 1.06 1.65 1.67l.17-.12 3.73.15c3.19-.06 5.4-1.51 7.46-3.17 2.07-1.66 3.97-3.54 6.55-4.48 4.7-.61 9.35-.82 13.54 1.66 3.9 2.31 5.66 1 8.16-2.28 8.25-10.81 15.54-11.72 28.31-4.4.98.18 1.74.52 1.37 1.6.77.96 1.54 1.91 2.32 2.87.3.7.9 1.24 1.28 1.88.14.97.27 1.94.41 2.91.81.24 1.49.56 1.49 1.29 0 .15-.03.31-.09.5v3.02c0 .51.01 1.02.02 1.53h-.01c.22.48.37.97.45 1.48 3.84-1.94 8.74-.16 12.4-2.72 3.02-2.72 6.94-2.61 10.8-2.57 10.66.11 21.33-.03 32-.12 9.96-.08 19.36 1.81 28.4 5.35 8.44 3.4 13.13 1.25 19.93-9.13 1.1-2.59 2.21-5.17 3.31-7.76 3.2-6.42 3.44-14.16 10.69-18.78-.28-.2-.57-.4-.88-.61 1.14-3.2 1.98-6.51 3.18-9.68 1.4-3.71 3.28-7.25 6.69-10.19 4.27-7.59 8.04-15.36 10.76-23.5-.15-7.18 6.33-12.18 7.99-18.72 4.38-17.17 18.11-25.21 36.21-29.11.04-.01.07 0 .1-.01.07-.26.14-.51.2-.77.45-.24.89-.49 1.32-.76a.84.84 0 0 0-.04.12v.92c2.39.79 3.28-1.56 3.2-3.4 2.4-2.05 4.59-4.39 7.25-6.41l1.79 2.46c.33-.67.03-2.25-.57-3.34 1.41-.96 2.97-1.81 4.75-2.47.66 8.18-6.84 13.51-6.77 20.68-.56.72-1.12 1.45-1.68 2.17.2.54.44 1.05.74 1.51-1.34 11.1-7.36 20.83-11.72 31.05-.54 2.29-1.41 4.54-2.34 6.66-2.79 6.34-5.03 12.96-9.43 18.64-.7.92-1.47 1.82-2.31 2.69-1.39 3.13-2.79 6.25-4.19 9.38l-.06 2.97c.03.62.07 1.25.11 1.87-1.02 4.58-4.34 8.15-6.62 12.17-7.01 12.32-10.26 26.21-20.3 37.3-4.25 4.69-2.76 7.09 3.99 7.11 4.69.98 9.38 1.95 14.07 2.92 8.93.38 17.36 2.26 25.06 6.38 5.78 3.91 12.82 4.82 19.61 6.3 7.91.77 15.27 2.78 21.49 7.37 34.08 11.38 67.85 23.71 103.34 31.25 10.98 2.34 22.15 5.98 33.95 4.81 5.96-.09 12.46-1.57 15.93 4.76-.6.5-1.2 1-1.8 1.51-7.86 5.02-16.96 5.21-26.13 5.15-.76-.11-1.5-.15-2.25-.2.3 1.51 1.7 2.36 3.47 3.19 3.69 1.73 8.77 3.05 10.47 5.85 8.01 13.24 21.66 18.68 36.9 22.24 2.36.55 2.77 1.39 2.38 3.14M-2.45-.92C-1.53-1.53.91-1.53 0 0c-.92 1.83-3.06 0-2.45-.92m5.81 7.65c-.31 0-.31-.31 0-.31s.31.31 0 .31m0 0c-.31 0-.31-.31 0-.31s.31.31 0 .31M0 0c-.92 1.83-3.06 0-2.45-.92C-1.53-1.53.91-1.53 0 0m0 0c-.92 1.83-3.06 0-2.45-.92C-1.53-1.53.91-1.53 0 0m3.36 6.73c-.31 0-.31-.31 0-.31s.31.31 0 .31m0 0c-.31 0-.31-.31 0-.31s.31.31 0 .31M0 0c-.92 1.83-3.06 0-2.45-.92C-1.53-1.53.91-1.53 0 0m0 0c-.92 1.83-3.06 0-2.45-.92C-1.53-1.53.91-1.53 0 0m3.36 6.73c-.31 0-.31-.31 0-.31s.31.31 0 .31m0 0c-.31 0-.31-.31 0-.31s.31.31 0 .31M0 0c-.92 1.83-3.06 0-2.45-.92C-1.53-1.53.91-1.53 0 0m0 0c-.92 1.83-3.06 0-2.45-.92C-1.53-1.53.91-1.53 0 0m3.36 6.73c-.31 0-.31-.31 0-.31s.31.31 0 .31m0 0c-.31 0-.31-.31 0-.31s.31.31 0 .31M0 0c-.92 1.83-3.06 0-2.45-.92C-1.53-1.53.91-1.53 0 0m0 0c-.92 1.83-3.06 0-2.45-.92C-1.53-1.53.91-1.53 0 0m3.36 6.73c-.31 0-.31-.31 0-.31s.31.31 0 .31m0 0c-.31 0-.31-.31 0-.31s.31.31 0 .31M0 0c-.92 1.83-3.06 0-2.45-.92C-1.53-1.53.91-1.53 0 0" style="fill:#010101;fill-opacity:1;fill-rule:nonzero;stroke:none" transform="translate(721.374 433.142)"/><path d="M0 0c-.92 1.83-3.06 0-2.45-.92C-1.53-1.53.91-1.53 0 0m3.36 6.73c-.31 0-.31-.31 0-.31s.31.31 0 .31m0 0c-.31 0-.31-.31 0-.31s.31.31 0 .31M0 0c-.92 1.83-3.06 0-2.45-.92C-1.53-1.53.91-1.53 0 0m0 0c-.92 1.83-3.06 0-2.45-.92C-1.53-1.53.91-1.53 0 0m3.36 6.73c-.31 0-.31-.31 0-.31s.31.31 0 .31m0 0c-.31 0-.31-.31 0-.31s.31.31 0 .31M0 0c-.92 1.83-3.06 0-2.45-.92C-1.53-1.53.91-1.53 0 0m0 0c-.92 1.83-3.06 0-2.45-.92C-1.53-1.53.91-1.53 0 0m3.36 6.73c-.31 0-.31-.31 0-.31s.31.31 0 .31m0 0c-.31 0-.31-.31 0-.31s.31.31 0 .31M0 0c-.92 1.83-3.06 0-2.45-.92C-1.53-1.53.91-1.53 0 0m0 0c-.92 1.83-3.06 0-2.45-.92C-1.53-1.53.91-1.53 0 0m3.36 6.73c-.31 0-.31-.31 0-.31s.31.31 0 .31m0 0c-.31 0-.31-.31 0-.31s.31.31 0 .31M0 0c-.92 1.83-3.06 0-2.45-.92C-1.53-1.53.91-1.53 0 0m0 0c-.92 1.83-3.06 0-2.45-.92C-1.53-1.53.91-1.53 0 0m3.36 6.73c-.31 0-.31-.31 0-.31s.31.31 0 .31m0 0c-.31 0-.31-.31 0-.31s.31.31 0 .31M0 0c-.92 1.83-3.06 0-2.45-.92C-1.53-1.53.91-1.53 0 0m0 0c-.92 1.83-3.06 0-2.45-.92C-1.53-1.53.91-1.53 0 0m3.36 6.42c.31 0 .31.31 0 .31s-.31-.31 0-.31M-2.45-.92C-1.53-1.53.91-1.53 0 0c-.92 1.83-3.06 0-2.45-.92m5.81 7.65c-.31 0-.31-.31 0-.31s.31.31 0 .31m0 0c-.31 0-.31-.31 0-.31s.31.31 0 .31M0 0c-.92 1.83-3.06 0-2.45-.92C-1.53-1.53.91-1.53 0 0m0 0c-.92 1.83-3.06 0-2.45-.92C-1.53-1.53.91-1.53 0 0m3.36 6.73c-.31 0-.31-.31 0-.31s.31.31 0 .31m0 0c-.31 0-.31-.31 0-.31s.31.31 0 .31M0 0c-.92 1.83-3.06 0-2.45-.92C-1.53-1.53.91-1.53 0 0m0 0c-.92 1.83-3.06 0-2.45-.92C-1.53-1.53.91-1.53 0 0m3.36 6.73c-.31 0-.31-.31 0-.31s.31.31 0 .31m0 0c-.31 0-.31-.31 0-.31s.31.31 0 .31M0 0c-.92 1.83-3.06 0-2.45-.92C-1.53-1.53.91-1.53 0 0m0 0c-.92 1.83-3.06 0-2.45-.92C-1.53-1.53.91-1.53 0 0m3.36 6.73c-.31 0-.31-.31 0-.31s.31.31 0 .31m0 0c-.31 0-.31-.31 0-.31s.31.31 0 .31M0 0c-.92 1.83-3.06 0-2.45-.92C-1.53-1.53.91-1.53 0 0m0 0c-.92 1.83-3.06 0-2.45-.92C-1.53-1.53.91-1.53 0 0m3.36 6.73c-.31 0-.31-.31 0-.31s.31.31 0 .31m0 0c-.31 0-.31-.31 0-.31s.31.31 0 .31M0 0c-.92 1.83-3.06 0-2.45-.92C-1.53-1.53.91-1.53 0 0" style="fill:#010101;fill-opacity:1;fill-rule:nonzero;stroke:none" transform="translate(761.183 287.887)"/><path d="M0 0h-.61c-.3 0-1.53.91-1.83.91-.31 0-2.14-1.52-2.45-1.52L-5.5 0v8.26c.92.3 2.44 1.22 2.44 2.45 0 1.22-1.22 2.14-.91 3.36 0 .31.91 2.14.91 2.45v8.26l.62.61c.3-1.53.91-9.79.91-11.32V9.18C-1.53 8.87 0 7.03 0 6.73.31 5.5.31 1.22 0 0m-3.97-15.61c-.31-1.52-2.45.92-2.45.92-1.22 2.14-1.22 5.2 2.45 3.98.3 0 .91-.31.91-.61zm-4.9-23.86c-.92 1.84 1.84 3.06 3.37 2.45.3-1.53-2.45-4.59-3.37-2.45m-.92-13.15v1.83c.31.92 1.84.92 2.45.61.61-1.53-.61-2.75-2.45-2.44m-1.53 61.8v1.53c-.3.3-4.28 4.28-4.28 5.81 0 3.06 8.26-1.53 9.18-2.45-1.53.31-3.37-9.48-4.9-4.89m.62-23.87s-.62.61-.62.92v.61h.62zm-1.53-39.46c-1.23-.62-3.37.91-3.98 1.53v.91c.61.31 5.51-.61 3.98-2.44m-3.98 29.67c.31-.3 3.06-2.14 3.98-3.36-.92-2.45-3.98 1.22-4.9 1.53-.3.61.31 1.53.92 1.83m-4.28-2.14c-.31 0-.31.61 0 .61.3 0 .3-.61 0-.61m-1.53 59.35c-.31 0-.31.62 0 .62.3 0 .3-.62 0-.62m6.42-3.97c1.53.91 2.45-1.53.92-2.45-.31 0-.92.61-.92.92zm7.65 3.36c.31-1.53-.61-2.75-1.84-3.36-.3 0-.91.61-.91.91-.31.92 1.53 3.37 2.75 2.45m.61-9.18 2.45-3.06c0-.3-.61-.91-.61-.91-.62 0-2.45.61-2.45.91-.31.31-.92 3.37-.92 3.98.92.31 1.23-.3 1.53-.92m2.45 11.63c.61 0 .61-.92 0-.92s-.61.92 0 .92m-43.44-141.35c-.31 0-.92.62-.92.92-.62.92 1.53 2.14 1.83 2.45 2.14 0-.3-3.06-.91-3.37M14.08 49.25c-.31 3.37-.92 11.63-.92 11.63l-.61.92h-55.38V-68.23c0-.3-1.22-4.89-1.53-6.42-4.28-20.19-16.52-28.15-37.02-29.68l-.61-.61v-51.09c0-.31.92-.92 1.53-.92h6.73c20.5 1.22 43.45 5.51 59.97 18.97 18.35 14.99 27.84 38.24 27.84 61.8V41.3c-1.23.92 0 6.73 0 7.95" style="fill:#010101;fill-opacity:1;fill-rule:nonzero;stroke:none" transform="translate(220.553 426.572)"/><path d="M284.809 346.108h.918v.918h-.918z" style="fill:#010101;fill-opacity:1;fill-rule:nonzero;stroke:none"/><path d="m0 0 1.531-1.531L3.367 0C2.753 1.529.613 1.529 0 0" style="fill:#010101;fill-opacity:1;fill-rule:nonzero;stroke:none" transform="translate(275.018 374.866)"/><path d="M0 0s-.307-2.142-.613-3.367v-.917L.918-5.813C2.753-4.896 1.222 0 .918 0Z" style="fill:#010101;fill-opacity:1;fill-rule:nonzero;stroke:none" transform="translate(270.736 360.182)"/><path d="M0 0c-.307 1.224-1.836 1.224-2.447.918V0C-1.836-1.222-.611-1.222 0 0" style="fill:#010101;fill-opacity:1;fill-rule:nonzero;stroke:none" transform="translate(301.33 310.005)"/><path d="M0 0c-.307 0-.307-.918 0-.918C.611-.918.611 0 0 0" style="fill:#010101;fill-opacity:1;fill-rule:nonzero;stroke:none" transform="translate(255.133 308.476)"/><path d="M318.463 402.095h.918v.611h-.918z" style="fill:#010101;fill-opacity:1;fill-rule:nonzero;stroke:none"/><path d="M0 0c-2.45-1.22-4.29.31-5.51 2.45-.31.3-.31 1.22 0 1.53C-4.29 4.59.91 1.53 0 0m-4.9-33.04c-.3 0-1.22.3-1.53.92l.92.91c.31-.3.92-1.22.61-1.83M-6.43-4.28c.61 0 .61-.62 0-.62s-.61.62 0 .62M-10.4 56.6l-3.37 1.84c-1.53.91-.92 4.89-.92 5.5.31 1.84 3.37.92 4.29 2.45 0 .61 1.22 4.59 1.52 5.2.31 0 .92 1.53.92 1.53 2.76 2.75.31-4.59 0-5.81-.61-.92-1.22-2.76-.92-3.98.62-2.14 3.98-8.26-1.52-6.73m.61-25.39h.91v-.92h-.91Zm-.61-14.08h-.92c-.92.31-3.06.92-3.37.92l-1.53 1.53c.61 1.22 1.23.92 2.45 1.83l.92.62c4.89 6.73 6.12 0 2.45-4.9m-4.29-7.34c-2.45 1.53.92 6.42 5.81 0-.61-2.14-4.58-.92-5.81 0m4.9-15.6L-15.61 0v1.53c3.37 1.53 8.26-3.98 5.82-7.34M-20.5 0c-.31.31-.31 1.22 0 1.53 1.83 2.14 3.06.92 3.36 3.36.31-1.83-.61-5.81-3.36-4.89m4.89 28.76c1.23.91 2.76-2.45.92-2.45-.3 0-.92.61-.92.92zm12.55 16.52c.61-1.84.3-4.59-1.84-5.2-.3 0-.61.61-.61.92-.31 1.22.61 4.89 2.45 4.28m-2.45 8.87c.61-.61 1.22-1.53 1.53-2.45-.61-.3-1.22.31-1.53.92zm-21.42 19.89h-1.83v6.42c-1.22.61-2.45-1.22-3.98-.92-.61-.61-2.14-3.97-2.45-4.89-1.22-3.06 1.53-3.67.92-7.34v-1.53h2.45v-4.9c-1.84 3.67-9.18 2.14-11.63 1.53-.92-.3-3.06-7.65-3.98-3.97-.61 1.83.92 8.56 2.45 10.4l2.45 1.83c3.67 3.06-4.59 4.29 3.36 7.35.31.3 1.54.91 1.54.91 1.22 1.53-1.54 3.06-.92 4.9 3.06 6.73 1.53 5.81 3.36 12.23 0 .31.92.31.92 0 .31-.3.61-2.14.61-2.44 0-.31 1.84-2.14 1.84-2.45 0-.31-1.84-2.14-1.84-2.45-.3-1.83 0-4.28 1.84-5.81 2.75-2.14 3.36 4.28 4.89 4.89 3.06-4.58.31-8.56 0-13.76m-2.44-11.02c-.31 0-.31.62 0 .62.3 0 .3-.62 0-.62m-21.42-.61-.92-.92v.92zm-37.02-33.65v.91l.92-.91zm45.28-22.95h-43.75c-2.45 0 1.53 7.96.92 10.71-1.53.92-5.2-9.79-3.98-.92v4.9c2.14 3.06 2.45-2.76 6.43 2.45 4.58 5.5-4.29 14.07 4.28 12.23 3.36 11.32 7.65 23.87 10.71 35.49v1.53c-3.06 1.22-5.51-8.87-8.26-2.45l-.92-.91c1.53-1.84 2.45-4.9 1.53-7.35-.92-3.67-8.26 4.59-11.32-4.89v-3.98c-1.53-6.73-7.34-10.09-4.9-17.44.92-2.75-3.36-4.59-4.28-6.42-1.22-3.06-3.06-13.46 0-15.61V1.53c-2.14-3.06 1.53-7.96 1.84-11.32 2.14-1.84 5.81 10.4 11.32.61 4.28 1.53 5.81 12.55 10.7 4.28-2.75.92-5.81-2.44-4.89-4.89 1.22-3.37 10.09-2.14 3.36-6.73-6.42-3.98-5.81 1.83-11.62 0 0-.61-.61-4.9-.92-5.81 0 0-.31-.62-.61-.62-1.53.62-1.22 3.06-3.37 3.06-2.75 0-.91-7.64-6.42-3.97l-4.28 3.36h-.92c1.22-2.45-1.53-5.2-3.06-6.73-4.9 6.43-7.04-2.14-9.18-5.81-.92-1.84-4.28-1.53-4.9-3.06-.3-.92-.91-4.28-.91-4.9-2.45-1.83-2.45-.61-4.9.62l-3.36 1.83c0 1.53-.92 7.04-.61 9.79h-1.84c-2.76-1.22-.61-7.65-7.96-4.28-4.58 2.45 6.74 5.51 5.51 11.62 0 .31-.31.92-.61.92-.31 0-3.06.61-3.37.61-.3.31-.3 3.37 0 4.29 0 .3 1.23 1.22 1.53 1.53.62.61 1.84 2.14 1.84 2.44v2.45c0 .31 1.53 3.06 1.53 3.37.92 3.97-4.28 14.38-3.98 14.68 3.67 2.45 6.12-11.32 7.35-9.79v6.73c0 .31-.92 1.23-.92 1.53-1.84 6.12.92 3.98 1.53 8.26.61 2.76-.92 7.35-.61 10.71 3.36 1.22 3.05-2.45 6.42-1.84 3.36.92-3.06 4.59-3.06 5.2-.61 2.15 3.36 2.76 4.9 2.45 0 .61.3 4.9.61 5.51 0 .31 1.83 1.53 1.83 1.84 0 .3-2.14 12.85 2.45 5.81 3.98 2.75-1.22 3.06 0 6.42.61 2.14 3.37-.3 3.37 4.9 2.14.92 1.83-1.53 4.89 0 2.45 1.22.31 5.2 4.9 6.73 0 .61.61 3.98.61 4.89.3.31 2.45 2.15 2.45 2.45 2.75 4.29 1.22 4.59 2.75 8.87.31 1.53 2.75 1.23 3.06 2.45.31 1.23 2.14 8.57 1.83 9.18l-2.44 2.45c-1.53 2.14 2.75 3.36 3.06 4.89.91 2.14-3.06 6.43 0 8.26.3.31 4.89 3.37 6.73 2.45.91 4.59-1.53 6.43-5.82 6.73v2.45h5.82c1.22 0 6.11.92 6.42 2.45-.92 1.22-6.42 2.75-6.42 3.06 2.14 4.28 11.32-1.23 11.32-3.06v-4.29c0-.3.61-.61.91-.61 0 0 .62 1.23.92 1.53l4.9 4.9c5.2-1.84 1.53-4.9 2.44-8.26 4.9 1.53 5.82-8.57 9.8-6.43.91.31 2.44 3.06 4.28 3.06 4.59 0 2.75-3.06 1.53-5.51-.92-.92-1.53 1.84-2.45 2.45-1.84-4.89-2.14-10.4-1.53-15.6 0-1.53 2.75-1.23 3.06-.92.61.31 3.06 2.75 3.37 3.37 2.44-2.15 3.67-8.57-.92-9.18 1.53 5.2-5.51 3.36-6.43.92 2.45-1.84 8.26-10.1 7.35-13.16-1.23.3-3.06 3.06-3.98 2.45.3-1.53.3-3.37-.92-3.98h-.92c0 3.67-2.44 3.37-3.06 6.43-4.59.91-8.26-2.45-6.73-7.35l18.97-60.88c.31-.92.92-3.06.92-3.37 0-.3-.61-.61-.92-.61m-21.42-18.05v.61h1.53c-.3-.3-.91-.91-1.53-.61m-2.44 13.46c-.31 0-.31.61 0 .61.3 0 .3-.61 0-.61m-65.78 18.36c3.37 1.83 1.22-4.9 0-3.06-.31 0-.92 2.14-.92 2.45 0 0 .61.61.92.61m27.23 46.2c0-.62-.92-.62-.92 0 0 .61.92.61.92 0m8.87 66.39v-1.53l-.61.91zm1.84-9.79h-.92c-.31.3-.92 1.22-.92 1.53v1.83c2.14.92 1.84-2.75 1.84-3.36m6.42 18.97v-1.84l-.92.92zm.92-10.41c.3 0 .3-.61 0-.61-.31 0-.31.61 0 .61m6.42 14.38c-1.53-.61-3.06.92-3.97 1.84-8.26 4.89 6.11 5.2 3.97-1.84M-82 156.95c3.98 6.12 9.18-4.29 5.82-4.9-.31 0-.92.31-.92.61 0 .31-.92 1.84-.92 1.84-.31.61-5.2.61-3.98 2.45m18.05-15.6c.31-.31 2.15-.62 2.45-.92.92-.92-.61-3.67-1.53-3.98h-4.89c1.22-4.59-6.12-7.34-4.29-10.71-2.75-1.53-4.28 2.14-5.81 3.06-.31 0-1.53.61-1.53.92-.3.31-1.53 2.45-1.53 3.36 0 .31-.61 2.45-.92 2.45-.91.61-3.67-.92-4.28.92-1.22 3.67 3.37 2.75 5.2 3.06 5.2 1.22 7.65 4.89 12.24 6.73 1.22.61 3.98-4.28 4.89-4.89m7.35-1.84c5.5 2.45 6.42-5.81 10.71 0 .91-1.84-1.23-2.45-1.54-3.98v-3.36c-.91-2.76-4.58-1.84-4.89-6.43v-3.36c0-.31-2.45-2.15-2.45-2.45v-.92c.92-.3 2.14.92 3.06.92 1.53 0 2.45-7.34-1.53-4.9-.61.31-4.59 2.45-4.89 3.37-.62 1.53-1.53 8.26-3.37 8.87-.3 0-1.22-.61-1.53-.92-2.14 4.9 5.82 7.04 6.43 9.18.3 1.84-2.15 2.45 0 3.98m12.23-18.05c.62 1.22 2.15 1.22 2.76 0-.31-.92-1.84-.92-2.76-.61zm.92 13.15c.61 0 .61-.61 0-.61s-.61.61 0 .61m9.18-27.84h1.53c-.3-.61-1.22-1.22-1.53-.91zm6.43 7.35c1.22-3.37-3.68-3.98-5.82-2.45-1.22 7.65 4.9 5.51 5.82 2.45m-3.98 9.17c1.22-2.14 0-4.89-1.84-2.44-.3.92 1.23 3.06 1.84 2.44M-26.01 93v-.61c-.3 0-.3.61 0 .61M42.83-51.09l-72.81 216.3h-56.3c-2.75 0-6.73-16.22-7.95-20.5l-5.2-15.91s-.31-1.22-.62-1.53l-14.99-43.44c0-5.81-3.67-9.49-4.89-14.99v-3.06c-.31-1.84-1.84-2.45-2.45-4.29-11.93-36.71-24.48-72.5-37.02-109.22 0-.61-.92-3.67-.61-4.89 0-.31.61-.92.61-.92h47.12l7.34 1.84s.31.91.61 1.52l5.81 18.97c.61.92.92.92 1.84.92 19.58-.3 65.47-.92 65.47-.92l.92-.91 7.03-21.42h65.17c1.22 0 .92 2.45.92 2.45" style="fill:#010101;fill-opacity:1;fill-rule:nonzero;stroke:none" transform="translate(385.773 323.162)"/><path d="M0 0c-.305 0-.611-.613-.611-.918v-1.531H.918C1.224-1.531 1.224-.307 0 0" style="fill:#010101;fill-opacity:1;fill-rule:nonzero;stroke:none" transform="translate(316.014 401.178)"/><path d="M0 0c0 .611-.918.611-.918 0S0-.611 0 0" style="fill:#010101;fill-opacity:1;fill-rule:nonzero;stroke:none" transform="translate(311.119 452.88)"/><path d="M0 0c.307 0 .307.307 0 .307C-.305.307-.305 0 0 0" style="fill:#010101;fill-opacity:1;fill-rule:nonzero;stroke:none" transform="translate(295.516 376.395)"/><path d="M0 0c-.61 1.53 1.83 2.44 2.45.91C3.06-.61.92-1.23 0 0m-2.45 7.34v.92l.66.9L0 11.62c.33-.67.03-2.25-.57-3.34-.49-.92-1.18-1.5-1.88-.94m-8.26-55.68c-3.98 5.81-4.28-6.43-6.42-7.65l-2.45 1.83c-1.53.92-1.84 2.76-2.45 3.98.61 1.53.92.61 2.45 1.84l1.53 1.53c2.45 3.36 6.73 3.67 9.18 0zm-28.76 18.66c-5.5-29.06-24.78-46.5-55.07-41-24.47 4.29-35.18 29.99-36.1 52.63-.61 16.52.92 34.26 9.79 48.34 7.65 12.23 20.81 17.43 34.57 18.35C-58.44 50.17-39.47 27.53-38.55.91c.31-11.01 1.22-20.19-.92-30.59m-33.65-73.12v.92h.92zm-27.84-.61c-.61.61.61 1.53.92 1.53h2.44c1.23-2.14-2.14-3.06-3.36-1.53m-2.45 18.05c-.61-.31-1.53.3-1.83.92l.91.61c.61-.31 1.23-.92.92-1.53m-23.86 2.45c-.62 0-.62.91 0 .91.61 0 .61-.91 0-.91m-4.9 25.39v.92h.61zM-134-96.99c0 .61.91.61.91 0s-.91-.61-.91 0m0 19.28c.3 0 .3-.61 0-.61-.31 0-.31.61 0 .61m-3.06 6.12c-.31 0-.31.3 0 .3.3 0 .3-.3 0-.3m-4.9 80.76V7.34c0-.61.61-4.28.61-4.9v-10.7c2.14-2.76 0-7.96-3.97-2.45-1.23-.92-2.15-3.37-2.45-3.98-.92-2.75.61-3.36 2.45-4.89.3-.31 2.44-1.53 2.44-1.84.31-.61.92-4.89-.91-5.81-4.9-2.45-.92 16.82-11.32-4.9-.31-.3 1.53-4.59-.92-3.06-.31.31-1.84 3.37-1.84 3.98 0 .61.31 6.12 0 6.73-.61 3.06-6.12 7.34-4.89 13.77h-.61s-.62-2.76-.92-3.98v-3.36h-1.53c.3.61.3 3.67 0 3.97 0 .31-2.45 2.45-2.45 2.45-1.84 3.98-3.06 18.97-2.75 23.25.91 5.51 3.97 8.87 2.75 14.69-.61 2.44 3.67 0 3.06 3.98 1.22-.31 1.53-5.21 3.37-3.06v-5.82h.91c0 .92 3.68 8.88 4.9 9.79.92.61 2.75-.91 3.98-.91-.31.3-.62 2.44-.62 2.75 0 3.67 7.96-4.29 5.51-11.63 0-.92.31-1.53.92-1.53 1.22.61 1.83 2.45 2.45 3.06l.91-.61 1.53-7.65s.62-1.22.92-1.53c1.53 1.53-1.22 10.1-.92 12.24 2.76 1.53 4.59-10.4 4.29-11.32-1.53-3.67-3.06-2.14-4.9-4.9m3.06-33.04h-.61v.92h.61zm-1.53 6.43c-.3 0-.3.61 0 .61.31 0 .31-.61 0-.61m-10.71-15.3v.61c.31.61 1.23 1.23 1.53.92v-1.53zm1.53-19.89c0 .31.92 2.15.92 2.45-.3 1.84-4.59 7.04-1.53 8.26.61.61 2.45-2.75 3.06-3.36 0-.92.92-5.51.92-6.43.3-1.83-3.37-2.45-3.37-.92m0-15.6h-.61v5.81c0 .92.31 3.68 1.53 3.98h.92c.61-2.14-.61-1.53-.92-3.98 0-1.22 1.22-4.58-.92-5.81m-2.44 18.05c-.62 0-.62.92 0 .92.61 0 .61-.92 0-.92m0-7.65c-.31 0-.31.61 0 .61.3 0 .3-.61 0-.61m-.62-20.19c-.3 0-.91.61-.91.92-.31.3.3 1.22.91 1.53 1.84 0 0-2.45 0-2.45m-9.17 49.26c-1.53-.92-2.15.92-2.45 1.53-.61 2.14 3.67 3.06 2.45-1.53m-3.37-35.18c-.31 0-.31.61 0 .61.61 0 .61-.61 0-.61M-50.79 62.41c.31-1.53-.3-3.37-.92-4.9-.61.31-2.14 1.84-2.44 2.45-1.23 2.45 2.14 2.76 3.36 2.45m-1.83 4.28s.61.61.91.61c.62-.3 1.23-.91.92-1.53h-1.83zm4.28 11.63c.3 0 .3-.61 0-.61-.31 0-.31.61 0 .61m10.71-19.28c.61 1.53 5.81-5.5-.92-3.97-.3 0-.92.61-.92.91zm15.6 6.73c3.06-4.28-6.12-7.34-2.45-8.26 11.63-3.05 9.49-4.28 10.71-15.6.31-2.14 12.85-8.26.61-6.42-.3 0-1.83.3-1.83.61v7.34c0 .61-1.53 1.22-2.14.92v-4.9s-6.73-1.83-8.26-2.45c-1.23-.3-3.06 7.65-5.82 9.8v13.15c-3.67 2.45-.61 4.28-6.42 6.73 5.81 7.96 9.79-3.36 15.6-.92m18.97-48.64c.31-3.98-.61-7.04-2.45-2.45-.92 2.45-.61 4.9 2.45 2.45m-5.81 14.99c.61 0 .61-.92 0-.92-.62 0-.62.92 0 .92m-3.37-14.07v.92c2.39.79 3.28-1.56 3.2-3.4-.06-1.69-.96-2.94-2.28-.89 0 0-.56 2.26-.88 3.25a.84.84 0 0 0-.04.12m-3.36 14.07c1.83-1.22 4.28-4.59 3.36-6.73-.92-.31-3.06.61-3.36.92-2.76 1.22-1.84 4.28 0 5.81m-1.53-9.79c-.62-.31-1.53 0-1.53.61v2.45c1.83 1.22 1.53-2.75 1.53-3.06m-14.08 18.05h.92v-.92h-.92zm-3.97 10.71v1.53c1.22.92 2.44-1.53.91-2.45-.3 0-.91.61-.91.92m9.79 34.26c-.54.4-1.08.79-1.63 1.17-13.82 9.69-31.28 13.5-48.45 14.47-7.01.39-13.96.31-20.6-.03-17.74-.62-44.66-9.79-56.6-23.56l-1.83-2.75c-.31 0-2.14-.31-2.45-.61-16.83-12.86-29.68-50.49-30.29-70.68-.91-19.88-1.22-41 5.82-59.96 13.76-39.16 39.77-61.5 81.38-67.31 10.09-1.53 20.8-1.53 31.2 0 55.38 6.42 86.28 49.26 87.81 103.41 1.22 42.83-8.88 79.54-44.36 105.85" style="fill:#010101;fill-opacity:1;fill-rule:nonzero;stroke:none" transform="translate(745.24 390.472)"/><path d="M0 0v.92h.61zm-1.83-39.47c0 .61.91.61.91 0s-.91-.61-.91 0m0 19.28c.3 0 .3-.61 0-.61-.31 0-.31.61 0 .61m-3.06 6.12c-.31 0-.31.3 0 .3.3 0 .3-.3 0-.3m-4.9 80.76v-1.83c0-.61.61-4.28.61-4.9v-10.7c2.14-2.76 0-7.96-3.97-2.45-1.23-.92-2.15-3.37-2.45-3.98-.92-2.75.61-3.36 2.45-4.89.3-.31 2.44-1.53 2.44-1.84.31-.61.92-4.89-.91-5.81-4.9-2.45-.92 16.82-11.32-4.9-.31-.3 1.53-4.59-.92-3.06-.31.31-1.84 3.37-1.84 3.98 0 .61.31 6.12 0 6.73-.61 3.06-6.12 7.34-4.89 13.77h-.61s-.62-2.76-.92-3.98v-3.36h-1.53c.3.61.3 3.67 0 3.97 0 .31-2.45 2.45-2.45 2.45-1.84 3.98-3.06 18.97-2.75 23.25.91 5.51 3.97 8.87 2.75 14.69-.61 2.44 3.67 0 3.06 3.98 1.22-.31 1.53-5.21 3.37-3.06v-5.82h.91c0 .92 3.68 8.88 4.9 9.79.92.61 2.75-.91 3.98-.91-.31.3-.62 2.44-.62 2.75 0 3.67 7.96-4.29 5.51-11.63 0-.92.31-1.53.92-1.53 1.22.61 1.83 2.45 2.45 3.06l.91-.61 1.53-7.65s.62-1.22.92-1.53c1.53 1.53-1.22 10.1-.92 12.24 2.76 1.53 4.59-10.4 4.29-11.32-1.53-3.67-3.06-2.14-4.9-4.9m3.06-33.04h-.61v.92h.61zm-1.53 6.43c-.3 0-.3.61 0 .61.31 0 .31-.61 0-.61m-10.71-15.3v.61c.31.61 1.23 1.23 1.53.92v-1.53zm1.53-19.89c0 .31.92 2.15.92 2.45-.3 1.84-4.59 7.04-1.53 8.26.61.61 2.45-2.75 3.06-3.36 0-.92.92-5.51.92-6.43.3-1.83-3.37-2.45-3.37-.92m0-15.6h-.61v5.81c0 .92.31 3.68 1.53 3.98h.92c.61-2.14-.61-1.53-.92-3.98 0-1.22 1.22-4.58-.92-5.81m-2.44 18.05c-.62 0-.62.92 0 .92.61 0 .61-.92 0-.92m0-7.65c-.31 0-.31.61 0 .61.3 0 .3-.61 0-.61m-.62-20.19c-.3 0-.91.61-.91.92-.31.3.3 1.22.91 1.53 1.84 0 0-2.45 0-2.45m-9.17 49.26c-1.53-.92-2.15.92-2.45 1.53-.61 2.14 3.67 3.06 2.45-1.53m-3.37-35.18c-.31 0-.31.61 0 .61.61 0 .61-.61 0-.61M4.9-24.48c.61 0 .61-.91 0-.91-.62 0-.62.91 0 .91m22.94-1.83c.61-.31 1.23-.92.92-1.53-.61-.31-1.53.3-1.83.92zm4.29-18.05h2.44c1.23-2.14-2.14-3.06-3.36-1.53-.61.61.61 1.53.92 1.53m26.92 0h.92l-.92-.92zM45.89 106.16c4.884.265 19.635-.208 28.871-1.319 3.564-.428 6.702 2.343 6.702 5.933v47.166c-2.34.25-22.423.44-24.763.57-7.01.39-13.96.31-20.6-.03-17.74-.62-44.66-9.79-56.6-23.56l-1.83-2.75c-.31 0-2.14-.31-2.45-.61-16.83-12.86-29.68-50.49-30.29-70.68-.91-19.88-1.22-41 5.82-59.96 13.76-39.16 39.77-61.5 81.38-67.31 7.334-1.112 31.476-.592 44.165-.217a8.196 8.196 0 0 1 7.955 8.193v46.824c-7.46-2.71-36.72-3.37-46.62-1.57C13.16-8.87 2.45 16.83 1.53 39.47c-.61 16.52.92 34.26 9.79 48.34 7.65 12.23 20.81 17.43 34.57 18.35" style="fill:#010101;fill-opacity:1;fill-rule:nonzero;stroke:none" transform="translate(470.766 333.38)"/><path d="M0 0c-.31 0-.31.31 0 .31S.31 0 0 0" style="fill:#010101;fill-opacity:1;fill-rule:nonzero;stroke:none" transform="translate(724.74 441.252)"/><path d="M0 0c-.61.92 1.53 2.75 2.45.92C3.36-.61.92-.61 0 0" style="fill:#010101;fill-opacity:1;fill-rule:nonzero;stroke:none" transform="translate(718.93 433.912)"/><path d="M790.834 361.71h.918v.918h-.918zM804.907 355.286h-.918v-.918h.918z" style="fill:#010101;fill-opacity:1;fill-rule:nonzero;stroke:none"/><path d="M0 0c-.307-.611-2.449-3.365-1.531-4.896C.918-9.789 2.447-2.753 4.282-1.529c0 0 2.143.611 2.447.918v2.447C3.365 2.449 1.529 2.449 0 0" style="fill:#010101;fill-opacity:1;fill-rule:nonzero;stroke:none" transform="translate(795.73 322.243)"/><path d="M0 0c0-.307.918-.307.918 0C.918.611 0 .611 0 0" style="fill:#010101;fill-opacity:1;fill-rule:nonzero;stroke:none" transform="translate(847.433 465.119)"/><path d="M0 0c0-.307.613-1.224.613-1.531h.918C2.142-.613.613.611 0 0" style="fill:#010101;fill-opacity:1;fill-rule:nonzero;stroke:none" transform="translate(794.198 366.606)"/><path d="M0 0c.613-1.224 1.531-1.224 2.449-.918v2.447C1.836 1.836-.611 1.224 0 0" style="fill:#010101;fill-opacity:1;fill-rule:nonzero;stroke:none" transform="translate(792.363 356.815)"/><path d="M0 0v-.918s.611-.613.918-.613C1.224-.918.611-.307 0 0" style="fill:#010101;fill-opacity:1;fill-rule:nonzero;stroke:none" transform="translate(921.471 332.952)"/><path d="M0 0c-.61 0-.61.92 0 .92C.31.92.31 0 0 0m-.91-3.98c-1.54.92-4.29.92-5.82 2.45L-8.26.92c-1.83 2.45-4.28-1.22-5.81-1.53h-2.45c-7.65-1.53.31-8.87-3.36-10.1-.92.31-4.29 2.76-4.9 3.37-1.83 1.53-3.06 8.57-2.45 10.71 0 .3 1.53 2.14 1.53 2.44 1.84 3.68-.3 7.65 0 11.63 0 2.45 3.98-1.84 4.29 0l1.53 7.34.91.61s3.37-.3 4.9-.61c1.53-.3 4.59-2.75 6.42-1.83 2.76 1.53-.3 4.89 5.82.92.3-.92-.62-1.23-.62-2.45v-4.9c-.91-5.51-3.36-7.34 0-12.23.62-1.54-1.83-2.45-.91-4.29.61-.61 3.67-2.14 2.45-3.98m-25.4-18.96v3.97c4.28 2.45.61-9.48 0-3.97m-5.81 10.7c-1.23 2.15-2.14 4.9-1.84 7.35h.92l1.84-3.37c0-.31 2.14-2.14 2.44-2.45 1.23-2.14-2.44-3.36-3.36-1.53m-1.84-3.97v.61c.61.31 1.53-.31 1.84-.61zM-36.4-3.98v1.53c.3.62 1.22 1.23 1.83.92.31-.92-.31-3.36-1.83-2.45m15.6 37.63c0-.3-.61-.3-.61 0 0 .62.61.62.61 0m1.83.92 1.53 1.53c1.84 0-.3-4.28-1.53-1.53m6.43-8.26c-.31.31-3.37.92-3.98.92h-3.36c-1.84 7.04 11.93 1.22 7.34-.92m-25.4 98.52c-3.67-.31-9.48-.62-13.15 1.83-11.01-2.14-13.15 5.2-21.42 2.45-.91-.31-4.89 7.34-5.81 3.36 0-.3.31-3.06 0-3.36 0-.31-1.83-1.53-2.45-1.84-6.73-1.83-3.97 11.63-6.42 9.18l-4.28-3.98s-1.84 1.53-2.45 1.53c-.31 0-1.22-.91-1.53-.91-1.23.61-1.53 4.28-3.98 3.36v-5.81l-1.83-.92c0 .31-.62 1.53-.92 1.84-3.06 5.5 0 10.09 6.73 10.71h3.98c2.14.61 3.05 3.36 5.81.61 4.59 7.03 10.1 6.11 17.44 5.2 3.36-.61 2.44 6.12 10.7 3.97 2.76-.61 6.12 1.23 7.96 2.45 3.98-3.06 8.26-1.22 12.54-2.45 3.98-1.22 12.24-6.73 13.77-10.7v-3.37c.31-.92 14.38.31 12.54-3.06-8.26 1.53-1.83-6.73-6.73-8.26 1.23-1.83 4.29-1.53 3.37-4.28-3.98 1.22-6.73 1.22-5.81 5.81-9.49 3.37-11.32-13.46-15.61-8.87-1.22 1.22-.3 4.89-2.45 5.51M-59.96.92h-43.75v41.91h48.64C-36.1 42.83-30.9.92-59.96.92m12.85-48.65c0 .62-.61 2.76-.61 3.37-.31 1.53-.62 2.75.61 3.37 2.45 1.22 3.06-7.96 0-6.74m-10.41 31.52c-.61-.62-1.83.3-1.83.61-1.53 9.18 6.42 3.98 1.83-.61m-20.8-5.2s-2.75-1.53-3.06-1.53c-4.89 0-5.5 4.89-8.26 3.97-1.22 0-1.53-2.44-1.83-3.06-.31-1.22-1.23-2.14-.62-3.36l2.45-4.9c.92-2.75-3.06-3.97-4.89-3.36l-4.9 2.45c-.61.3-2.14.3-2.14 0v-3.98s-7.96-.61-11.02-.92h-1.83c-7.65 1.84-7.95-2.45-14.69 3.37-2.44 2.14 1.23 6.42-.91 9.79-1.23 1.83-5.2.91-3.98 4.89 3.06-.61 5.81.92 2.45 3.37-.92.61-4.29 2.75-4.9 3.36-1.53-2.14-.92-4.89-2.44-6.73-2.15-1.83-2.45 4.59-.92 7.34 3.36 5.51-1.53 4.9 0 8.26 3.36 6.43 6.42 5.51 8.87 9.79 1.83 2.45-4.59 5.21-3.06 9.18.31.61.61 2.76.61 3.37v1.22h-3.06l1.53 2.76c1.23 1.52-3.97-1.54-4.89 0-.92-.62-1.53-3.98-3.37-3.37 1.53 6.42-3.36 3.06-3.98 6.73v3.98c0 .3 1.53 2.14 1.53 2.44 1.23 2.45-2.44 4.9-2.44 7.35 0 1.53 1.83 2.75 2.44 3.36 1.53 2.14-6.42 9.18 1.53 10.71 1.84.31 2.76-2.14 3.37-1.53 3.67 3.37-1.22 5.82 1.84 8.87 2.14 2.15 3.97-4.59 4.89-4.89.31-.31 2.75-.92 3.06-.92h1.83l1.53 3.37c.31.3 3.06.91 3.37.91 3.98 1.23 4.9 1.84 3.98-1.52-1.23-7.04-.92-6.74-7.96-8.27v-.91c1.23-4.29 6.73 0 8.88.91 4.89 1.53 5.5.62 4.89-4.89 0-.61-.61-3.06-.61-3.37 0-.3-1.84-1.53-1.84-1.83-.92-2.76-.3-8.87-3.98-11.32v-5.81c0-.31.62-2.15.62-2.45 0-.31-.31-.92-.62-.92-3.05 3.98-6.42 6.42-9.17.92-.61-1.23 1.53-5.2 1.83-6.43v-5.2c.31-2.14 5.82-2.75 6.43-3.06.61-.61 1.53-4.28 1.53-4.89 10.09.91 5.2 5.81 7.64 6.42 1.23-.61 1.23-3.67 1.54-3.97 0-.31.91-1.54.91-1.84 0-1.22-4.28-1.53-4.89-3.06-1.84-3.06 5.5-1.84 6.42-6.73l4.9-1.53 4.89-2.45c1.23-.61 3.37 2.45 4.29 0 3.06-10.09 7.95-.92 9.79-1.83 3.36-1.53-1.53-1.53 4.89-3.98 1.53-.61 3.98-1.84 4.9-3.37-.31-1.22-2.76-.61-3.37-.91m-7.34-12.24c-.61 1.53-.92 2.45-.61 4.28 5.2 1.53 3.97-9.48.61-4.28m-55.68 29.67c0-1.22-.61-9.48-3.37-7.34v8.87c0 1.53-.61 7.65-.92 9.18-.91.31-1.22 1.53-1.53 2.45.62.31 3.06 2.75 3.06 3.06.31.31-.3 2.75.92 2.75h5.81c1.53-4.28-3.97-7.65-3.97-11.62zm-13.16 109.22v.92c0 .31 1.84 2.14 2.45 2.45h.61c.92-1.83-1.53-4.28-3.06-3.37m0-110.13v1.53h1.53zm-1.83 116.56v.92c.61.3 1.53-.31 1.83-.92l-.92-.61c-.3 0-.91.61-.91.61m0 5.81c.91.62 2.14-.61 1.83-1.53-.61-.3-1.53.31-1.83.92zm9.17-20.5c.62 0 .62-.91 0-.91-.61 0-.61.91 0 .91m3.98 1.23c.31 0 .31-.61 0-.61-.3 0-.3.61 0 .61m10.71 23.86c-.31 0-.31.62 0 .62.3 0 .3-.62 0-.62m3.36 2.14v-.91l-.91.91zm-.91 15.61c-1.23-.31-3.06.3-3.98.61-6.12 3.67 5.81 6.42 3.98-.61m6.73 3.06c.92.61 5.5-.92 3.98-2.45-1.84-.61-3.06.3-3.98 1.84zm9.79-82.91v-5.82c-.92-.3-2.45 1.84-2.45 1.84-1.84 5.51 2.45 5.81 2.45 3.98m-1.53 70.67c.3.31 1.53-.31 1.53-.92v-3.98c-.31-1.22-1.84-.61-2.45-.91-.31 0-3.06-1.53-3.36-1.53-.92.3-2.45 2.44-2.45 3.36 0 .31.61.61.91.61h3.98c.61.31 1.84 2.76 1.84 3.37m6.42-123.6c.31 0 .31-.61 0-.61-.3 0-.3.61 0 .61m2.45 137.06c.31 0 .31-.61 0-.61-.3 0-.3.61 0 .61m2.45-37.32c0 .61.61 4.28.92 4.89 0 .31.61.92.61.92h47.11c11.63 0 14.99-12.85 13.77-22.03-.61-8.57-8.57-12.24-16.22-13.16-4.58 0-25.39-.91-29.67-.91h-2.45c-3.67.3-12.54.91-12.54.91l-1.53 1.54zM17.13 18.97c-.61 12.24-5.2 24.48-13.15 33.65C0 57.21-5.5 60.27-10.71 63.33v1.53C2.76 72.2 10.71 85.05 13.16 99.43c6.12 38.25-19.28 66.7-57.52 66.7h-115.95V-52.62h111.67c1.53 0 7.65.61 9.18.92C.31-44.97 18.97-21.11 17.13 18.97" style="fill:#010101;fill-opacity:1;fill-rule:nonzero;stroke:none" transform="translate(928.2 322.242)"/><path d="M918.105 342.13h-.611v-.918h.611z" style="fill:#010101;fill-opacity:1;fill-rule:nonzero;stroke:none"/></g></svg>